<?xml version="1.0" encoding="utf-8"?>
<!-- Generator: Adobe Illustrator 27.5.0, SVG Export Plug-In . SVG Version: 6.00 Build 0)  -->
<svg version="1.1" xmlns="http://www.w3.org/2000/svg" xmlns:xlink="http://www.w3.org/1999/xlink" x="0px" y="0px"
	 viewBox="0 0 1200 1200" style="enable-background:new 0 0 1200 1200;" xml:space="preserve">
<g id="background">
</g>
<g id="Logo">
	<rect style="fill:#171315;" width="1200" height="1200"/>
	<g>
		<path style="fill:#DCE5EA;" d="M445.162,862.809c10.653,22.091,12.223,24.109,17.717,24.557v1.234h-21.194l-15.026-34.762h-21.194
			v17.605c0,6.84,0.561,9.756,2.356,11.999c2.018,2.579,4.597,3.701,9.195,3.925v1.234h-35.771v-1.234
			c4.597-0.224,7.177-1.345,9.195-3.925c1.795-2.243,2.356-5.159,2.356-11.999V828.72c0-6.84-0.561-9.755-2.356-11.998
			c-2.018-2.579-4.597-3.701-9.195-3.925v-1.346h50.125c11.438,0,26.464,8.297,26.464,23.772c0,10.878-9.195,17.045-17.493,18.278
			C441.91,855.185,442.807,857.763,445.162,862.809z M431.706,844.868c8.074,0,10.765-5.943,10.765-12.447
			c0-5.943-4.149-11.55-11.551-11.55h-25.455v23.997H431.706z"/>
		<path style="fill:#DCE5EA;" d="M682.773,851.035c-5.72,0.897-7.962,4.597-9.757,8.298v6.392c1.346,4.261,3.477,6.391,3.477,10.877
			c0,5.831-4.036,11.55-6.953,13.456c0.562-1.794,0.673-3.588,0.673-5.83c0-2.131-1.793-4.149-3.924-4.149
			c-1.795,0-3.14,0.336-4.149,1.234c-5.606,4.934-13.904,8.297-23.661,8.297c-21.753,0-40.031-14.69-40.031-38.013
			c0-22.54,17.492-41.603,40.031-41.603c18.952,0,21.866,8.522,29.941,8.522c2.691,0,3.811-1.906,6.168-3.252l0.784,1.009
			l-8.633,25.679l-1.122-0.225c0-5.607-7.626-22.763-26.801-22.763c-18.501,0-26.464,15.362-26.464,31.509
			c0,17.83,7.851,29.604,24.782,29.604c11.215,0,23.101-6.056,23.101-17.269c0-5.943-3.926-10.99-9.868-11.774v-1.234h32.407
			V851.035z"/>
		<path style="fill:#DCE5EA;" d="M786.608,851.372c0,21.755-18.055,38.686-39.809,38.686s-39.807-16.931-39.807-38.686
			c0-21.755,18.053-41.378,39.807-41.378S786.608,829.617,786.608,851.372z M721.346,850.474c0,18.503,8.297,29.155,25.454,29.155
			c17.83,0,25.456-10.652,25.456-29.155c0-18.503-6.729-30.052-25.456-30.052C728.073,820.422,721.346,831.972,721.346,850.474z"/>
	</g>
	<g>
		<path style="fill:#FAAF40;" d="M376.344,946.221c-1.399,0-2.588-0.49-3.566-1.468c-0.979-0.979-1.469-2.163-1.469-3.55v-11.481
			c0-1.399,0.493-2.588,1.477-3.567c0.985-0.979,2.171-1.468,3.558-1.468c1.399,0,2.585,0.492,3.558,1.477
			c0.974,0.985,1.461,2.17,1.461,3.558v2.4h-3.29v-2.467c0-0.504-0.178-0.935-0.537-1.293c-0.358-0.359-0.788-0.537-1.292-0.537
			c-0.503,0-0.931,0.178-1.284,0.537c-0.352,0.358-0.529,0.789-0.529,1.293v11.514c0,0.504,0.177,0.931,0.529,1.284
			c0.353,0.352,0.781,0.528,1.284,0.528c0.504,0,0.935-0.176,1.292-0.528c0.359-0.353,0.537-0.781,0.537-1.284v-2.904h3.29v2.937
			c0,1.399-0.493,2.585-1.477,3.558C378.902,945.734,377.72,946.221,376.344,946.221z"/>
		<path style="fill:#FAAF40;" d="M409.652,924.652c1.399,0,2.588,0.492,3.567,1.477c0.979,0.985,1.469,2.171,1.469,3.558v11.481
			c0,1.399-0.493,2.588-1.477,3.567c-0.985,0.979-2.171,1.468-3.559,1.468c-1.399,0-2.584-0.492-3.558-1.477
			c-0.973-0.984-1.46-2.17-1.46-3.558v-11.481c0-1.399,0.492-2.588,1.477-3.566C407.096,925.142,408.276,924.652,409.652,924.652z
			 M411.382,929.621c0-0.504-0.177-0.931-0.529-1.285c-0.352-0.352-0.781-0.528-1.285-0.528c-0.503,0-0.934,0.176-1.292,0.528
			c-0.358,0.353-0.537,0.781-0.537,1.285v11.514c0,0.504,0.179,0.932,0.537,1.284c0.359,0.352,0.789,0.529,1.292,0.529
			c0.504,0,0.932-0.177,1.285-0.529c0.352-0.352,0.529-0.781,0.529-1.284V929.621z"/>
		<path style="fill:#FAAF40;" d="M441.132,945.953h-3.173v-21.049h4.553l2.956,15.121l2.838-15.121h4.374v21.049h-3.173v-13.227
			l-2.752,13.227h-2.552l-3.071-13.193V945.953z"/>
		<path style="fill:#FAAF40;" d="M480.952,924.921c1.544,0,2.775,0.487,3.692,1.46c0.851,0.93,1.276,2.115,1.276,3.558v3.055
			c0,1.388-0.484,2.574-1.451,3.558c-0.968,0.985-2.14,1.477-3.516,1.477h-1.83v7.923h-3.173v-21.032H480.952z M482.849,929.99
			c0-0.548-0.165-0.99-0.495-1.326c-0.33-0.335-0.77-0.503-1.318-0.503h-1.913v6.731h1.913c0.503,0,0.931-0.179,1.284-0.538
			c0.352-0.358,0.529-0.789,0.529-1.293V929.99z"/>
		<path style="fill:#FAAF40;" d="M513.265,941.119l-0.771,4.834h-3.303l3.575-21.032h4.365l3.524,21.032h-3.335l-0.742-4.834
			H513.265z M514.932,929.739l-1.176,8.291h2.35L514.932,929.739z"/>
		<path style="fill:#FAAF40;" d="M547.488,924.904l4.209,14.146v-14.146h3.173v21.049h-3.407l-4.364-13.478v13.478h-3.173v-21.049
			H547.488z"/>
		<path style="fill:#FAAF40;" d="M582.387,937.141l-4.247-12.237h3.491l2.35,7.554l2.333-7.554h3.508l-4.264,12.237v8.812h-3.172
			V937.141z"/>
		<path style="fill:#FAAF40;" d="M635.22,940.716c0.023,1.466-0.359,2.719-1.142,3.76c-0.514,0.705-1.242,1.203-2.182,1.494
			c-0.503,0.156-1.09,0.235-1.763,0.235c-1.242,0-2.271-0.308-3.088-0.923c-0.681-0.503-1.222-1.188-1.62-2.056
			c-0.396-0.867-0.63-1.86-0.696-2.979l3.02-0.218c0.136,1.226,0.459,2.114,0.974,2.665c0.38,0.417,0.817,0.613,1.309,0.591
			c0.694-0.022,1.247-0.364,1.661-1.025c0.212-0.325,0.319-0.789,0.319-1.394c0-0.873-0.398-1.742-1.192-2.604
			c-0.626-0.594-1.566-1.484-2.821-2.672c-1.051-1.019-1.795-1.932-2.232-2.738c-0.469-0.907-0.705-1.893-0.705-2.957
			c0-1.915,0.644-3.366,1.93-4.351c0.794-0.593,1.779-0.89,2.954-0.89c1.129,0,2.098,0.251,2.904,0.755
			c0.626,0.392,1.133,0.94,1.518,1.645c0.385,0.705,0.619,1.516,0.696,2.433l-3.036,0.554c-0.091-0.861-0.337-1.532-0.739-2.014
			c-0.293-0.346-0.712-0.52-1.26-0.52c-0.582,0-1.024,0.258-1.326,0.773c-0.246,0.414-0.369,0.929-0.369,1.544
			c0,0.963,0.414,1.941,1.242,2.937c0.312,0.38,0.783,0.828,1.409,1.342c0.739,0.616,1.226,1.046,1.461,1.293
			c0.783,0.783,1.386,1.556,1.813,2.317c0.202,0.358,0.364,0.688,0.487,0.99C635.052,939.452,635.209,940.122,635.22,940.716z"/>
		<path style="fill:#FAAF40;" d="M667.134,945.953h-8.644v-21.032h3.172v17.876h5.472V945.953z"/>
		<path style="fill:#FAAF40;" d="M695.424,924.652c1.399,0,2.587,0.492,3.566,1.477c0.979,0.985,1.468,2.171,1.468,3.558v11.481
			c0,1.399-0.492,2.588-1.477,3.567c-0.985,0.979-2.171,1.468-3.557,1.468c-1.399,0-2.585-0.492-3.559-1.477
			c-0.974-0.984-1.459-2.17-1.459-3.558v-11.481c0-1.399,0.491-2.588,1.477-3.566C692.866,925.142,694.047,924.652,695.424,924.652z
			 M697.153,929.621c0-0.504-0.177-0.931-0.53-1.285c-0.352-0.352-0.78-0.528-1.283-0.528c-0.505,0-0.935,0.176-1.294,0.528
			c-0.359,0.353-0.537,0.781-0.537,1.285v11.514c0,0.504,0.178,0.932,0.537,1.284c0.359,0.352,0.789,0.529,1.294,0.529
			c0.503,0,0.931-0.177,1.283-0.529c0.353-0.352,0.53-0.781,0.53-1.284V929.621z"/>
		<path style="fill:#FAAF40;" d="M728.766,946.221c-1.399,0-2.587-0.492-3.566-1.477c-0.979-0.985-1.468-2.165-1.468-3.541v-11.481
			c0-1.399,0.491-2.588,1.477-3.567c0.983-0.979,2.169-1.468,3.557-1.468c1.399,0,2.585,0.492,3.559,1.477
			c0.972,0.985,1.459,2.17,1.459,3.558v2.4h-3.29v-2.467c0-0.504-0.178-0.935-0.537-1.293c-0.359-0.359-0.789-0.537-1.292-0.537
			c-0.505,0-0.933,0.178-1.284,0.537c-0.353,0.358-0.528,0.789-0.528,1.293v11.514c0,0.504,0.175,0.931,0.528,1.284
			c0.352,0.352,0.78,0.528,1.284,0.528c0.503,0,0.933-0.176,1.292-0.527c0.359-0.352,0.537-0.778,0.537-1.28v-4.135h-1.763v-3.189
			h5.052v7.352c0,1.399-0.492,2.585-1.477,3.558C731.323,945.734,730.143,946.221,728.766,946.221z"/>
		<path style="fill:#FAAF40;" d="M761.129,941.119l-0.771,4.834h-3.302l3.575-21.032h4.364l3.523,21.032h-3.334l-0.742-4.834
			H761.129z M762.795,929.739l-1.174,8.291h2.35L762.795,929.739z"/>
		<path style="fill:#FAAF40;" d="M795.352,924.904l4.21,14.146v-14.146h3.172v21.049h-3.408l-4.364-13.478v13.478h-3.172v-21.049
			H795.352z"/>
	</g>
	<g>
		<path style="fill:#F6921E;" d="M586.359,255.437c-137.512,0-249.386,111.874-249.386,249.386c0,73.297,31.79,139.304,82.3,184.974
			l25.851-17.521l3.116-8.271l4.612-1.438l27.095-8.34l-12.029,70.014c31.341,16.986,66.71,27.442,104.273,29.556l5.541-49.328
			l67.709-36.133c0.555,0.555,50.348,36.98,68.826,50.492c72.709-43.621,121.478-123.22,121.478-214.005
			C835.745,367.31,723.871,255.437,586.359,255.437z M747.879,461.334c-0.014,0.057-0.09,0.164-0.192,0.293
			c-1.916,3.667-17.728,39.027-16.147,63.06c1.577,23.992-11.646,55.298-11.646,55.298s-21.12-41.168-9.877-68.081
			c10.772-25.788,35.334-47.321,37.67-50.277C747.829,461.355,747.903,461.24,747.879,461.334z M706.018,384.491l8.986,65.587
			l13.05,14.727c0,0-18.141,19.248-22.314,31.087c0,0-4.723-19.958-7.836-23.166c-7.569-7.801-24.19-12.264-24.19-12.264
			l1.109-30.15l7.752,4.94v-55.53l-25.552-74.608C657.024,305.114,697.779,372.568,706.018,384.491z M691.432,540.179v20.44
			c0,0-12.351-14.871-16.012-28.276c-3.66-13.405-0.341-14.649,0-31.001c0,0,3.63,12.685,9.198,20.781
			C691.882,532.684,691.432,540.179,691.432,540.179z M620.53,321.666l31.043,63.166l13.968,45.31v26.573
			c0,0-13.797-16.012-42.124-27.084l-12.171-25.532c0,0,15.458,4.581,17.503,4.581l-17.503-70.321l-66.985-72.762L620.53,321.666z
			 M635.902,551.081c0,0-48.716,10.561-60.981-12.605c0,0,16.608,5.28,29.979,2.725c0,0-17.034-21.122-15.33-45.31
			c0,0,31.768,22.655,54.933,14.308c0,0-16.08,15.921-31.768,16.649C612.736,526.849,616.951,542.693,635.902,551.081z
			 M555.674,462.846l19.248,15.33l19.929,8.261l-19.929,5.366l-17.204,16.012l-6.643-22.144L555.674,462.846z M506.616,412.597
			l25.216-8.499l26.651,4.751l17.8,14.479l-22.144,4.429L506.616,412.597z M580.117,472.47l0.937-14.564l45.851,14.847l15.47,30.377
			c-7.024,2.873-12.994,1.54-16.352,0l-7.41-16.778L580.117,472.47z M560.273,370.183l36.988,30.32l13.985,25.465l-23.379-4.684
			l-25.125-20.781l-31.64-12.946l-89.299-10.901L560.273,370.183z M479.947,639.315l-68.464,21.292l-10.235-20.808l10.235-11.386
			l34.462-37.267l34.002-15.077V639.315z M479.947,559.853l-42.743,20.866l-57.744,12.946l63.878-85.85l42.16-6.473L479.947,559.853
			z M485.497,488.567l-37.136,5.11l21.509-31.853L447.255,470l-54.254,5.791l81.762-52.464h25.039l37.815,10.901l-37.317,12.946
			l3.303,15.671L485.497,488.567z M511.561,511.903l24.523-36.111l8.176,15.671l6.382,20.878l-9.966,5.682l2.093,20.368
			l-24.712,14.13L511.561,511.903z M527.993,557.546l16.268-9.531l6.382,24.486l-17.36,11.932L527.993,557.546z M537.958,595.028
			l16.656-13.333l30.968,37.07l-37.744,9.649L537.958,595.028z M573.488,691.576L553.8,637.35l38.624-9.958l42.265,33.668
			L573.488,691.576z M574.922,557.554c0,0,18.951,10.22,45.863,5.11l28.045-5.117c0,0,27.019,11.694,36.215,34.86
			c-5.934-5.996-19.504-11.687-39.603-7.599C614.243,591.153,579.35,571.862,574.922,557.554z M678.146,615.215
			c-10.22-16.1-32.705-22.232-32.705-22.232s23.166-4.429,43.266,11.242l24.869,46.332l-37.474,2.725
			C694.839,637.35,678.146,615.215,678.146,615.215z M735.578,693.993l-46.746-30.15c0,0,30.342-3.2,33.22-4.5
			c9.834-4.443,4.846-28.204,4.846-28.204C748.921,658.35,735.578,693.993,735.578,693.993z M750.198,662.566
			c0.511-28.617-26.658-62.684-26.658-62.684l7.324-19.897l6.217-19.365c4.173,34.238,12.438,36.181,16.839,56.458
			C759.688,643.648,750.198,662.566,750.198,662.566z"/>
	</g>
	<g>
		<path style="fill:#DCE5EA;" d="M875.193,816.609c1.795,2.243,2.355,5.158,2.355,11.999v20.972
			c2.904,3.477,6.069,6.494,9.005,8.977c-0.183-1.61-0.259,0.919-0.259-1.579v-28.37c0-6.84,0.562-9.756,2.355-11.999
			c2.02-2.579,4.598-3.7,9.197-3.925v-1.233h-31.847v1.233C870.595,812.909,873.175,814.03,875.193,816.609z"/>
		<path style="fill:#DCE5EA;" d="M897.411,874.203v0.004c-9.961-0.792-27.579-23.643-27.591-23.659l-33.537-39.096h-27.138v1.346
			c4.599,0.224,7.177,1.345,9.195,3.925c1.795,2.243,2.354,5.157,2.354,11.998v42.723c0,6.84-0.56,9.756-2.354,11.999
			c-2.018,2.579-4.596,3.701-9.195,3.924v1.234h31.734v-1.234c-4.596-0.224-7.177-1.345-9.195-3.924
			c-1.795-2.243-2.242-5.159-2.242-11.999v-47.881l57.3,67.617h0.786c-0.449-1.346-0.562-2.691-0.562-3.925
			c0-6.392,5.271-11.662,11.888-11.662v-1.234C898.397,874.359,897.911,874.299,897.411,874.203z"/>
	</g>
	<path style="fill:#DCE5EA;" d="M558.192,871.443l-23.886-59.88h-13.792l-13.67,34.424l8.957,3.057l9.646-24.25l12.223,30.726
		l-12.223,4.485l-10.341-3.794l0,0l-10.782-3.879l-5.229,13.168c-6.616,16.596-9.979,21.305-17.269,21.866v1.234h31.735v-1.234
		c-5.383-0.448-8.747-3.588-8.747-8.41c0-2.691,0.225-5.27,3.813-12.783l1.346-2.466l15.474,5.831l15.475-5.944l3.139,7.849
		c1.57,4.037,2.467,6.392,2.467,8.41c0,2.355-1.234,4.486-3.365,5.831c-1.569,1.009-3.139,1.346-6.839,1.682v1.234h37.677v-1.234
		C565.481,886.469,563.462,884.787,558.192,871.443z"/>
	<path style="fill:#DCE5EA;" d="M324.506,811.452h-47.994v1.346c4.598,0.224,7.177,1.345,9.195,3.925
		c1.794,2.243,2.355,5.157,2.355,11.998v42.723c0,2.227-0.061,4.032-0.203,5.54c4.723-1.542,9.766-4.702,12.874-6.849V820.87h22.875
		c7.625,0,19.512,9.196,19.512,31.174c0,19.512-7.401,27.361-13.905,27.361h-28.482c-12.673,8.562-24.221,7.961-24.221,7.961v1.234
		h54.946c15.699,0,27.137-18.951,27.137-36.781C358.595,831.187,341.102,811.452,324.506,811.452z"/>
</g>
</svg>
